<svg xmlns="http://www.w3.org/2000/svg" width="80.846" height="80.846" viewBox="0 0 80.846 80.846">
  <g id="icon_investors" transform="translate(-527.788 -3585)">
    <circle id="circle" cx="40.423" cy="40.423" r="40.423" transform="translate(527.788 3585)" fill="#13294a" opacity="0.5"/>
    <g id="icon_investors-2" data-name="icon_investors" transform="translate(548.523 3608.576)">
      <path id="Path_179" data-name="Path 179" d="M40.064,19.045l-1.814.882-7.793-13.5,9.607-6" fill="none" stroke="#fff" stroke-miterlimit="10" stroke-width="1"/>
      <path id="Path_180" data-name="Path 180" d="M.265,19.045l1.814.882,7.793-13.5L.265.424" fill="none" stroke="#fff" stroke-miterlimit="10" stroke-width="1"/>
      <path id="Path_181" data-name="Path 181" d="M9.481,7.217l2.3,1.195a3.5,3.5,0,0,0,1.6.4,3.561,3.561,0,0,0,.858-.114,3.4,3.4,0,0,1,2.5.314" fill="none" stroke="#fff" stroke-miterlimit="10" stroke-width="1"/>
      <line id="Line_4" data-name="Line 4" x1="4.558" y1="3.012" transform="translate(2.79 18.809)" fill="none" stroke="#fff" stroke-miterlimit="10" stroke-width="1"/>
      <path id="Path_182" data-name="Path 182" d="M34.062,18.928a2.211,2.211,0,0,1-2.211,3.83L24.8,18.684" fill="none" stroke="#fff" stroke-miterlimit="10" stroke-width="1"/>
      <path id="Path_183" data-name="Path 183" d="M24.794,18.684l6.1,3.521a2.211,2.211,0,1,1-2.211,3.83l-6.1-3.521" fill="none" stroke="#fff" stroke-miterlimit="10" stroke-width="1"/>
      <path id="Path_184" data-name="Path 184" d="M22.583,22.514l5.141,2.968a2.211,2.211,0,0,1-2.211,3.83l-5.141-2.968" fill="none" stroke="#fff" stroke-miterlimit="10" stroke-width="1"/>
      <path id="Path_185" data-name="Path 185" d="M20.372,26.344l4.183,2.415a2.211,2.211,0,1,1-2.211,3.83l-1.114-.643" fill="none" stroke="#fff" stroke-miterlimit="10" stroke-width="1"/>
      <path id="Path_186" data-name="Path 186" d="M31.188,7.733l-4,.727a2.729,2.729,0,0,1-1.345-.094l-4.89-1.622a2.787,2.787,0,0,0-3.095.956l-4.721,6.2a2.238,2.238,0,0,0,3.512,2.77l4.388-5.193,13.03,7.455" fill="none" stroke="#fff" stroke-miterlimit="10" stroke-width="1"/>
      <line id="Line_5" data-name="Line 5" y1="1.522" x2="2.379" transform="translate(35.021 18.465)" fill="none" stroke="#fff" stroke-miterlimit="10" stroke-width="1"/>
      <path id="Path_187" data-name="Path 187" d="M9.986,25.163,8.953,26.585a2.212,2.212,0,0,1-3.579-2.6l1.034-1.422a2.211,2.211,0,1,1,3.578,2.6Z" fill="none" stroke="#fff" stroke-miterlimit="10" stroke-width="1"/>
      <path id="Path_188" data-name="Path 188" d="M13.588,27.78,12.555,29.2a2.212,2.212,0,0,1-3.579-2.6L10.01,25.18a2.211,2.211,0,1,1,3.578,2.6Z" fill="none" stroke="#fff" stroke-miterlimit="10" stroke-width="1"/>
      <path id="Path_189" data-name="Path 189" d="M17.19,30.4l-1.033,1.422a2.212,2.212,0,0,1-3.579-2.6L13.612,27.8a2.211,2.211,0,0,1,3.578,2.6Z" fill="none" stroke="#fff" stroke-miterlimit="10" stroke-width="1"/>
      <path id="Path_190" data-name="Path 190" d="M20.791,33.014l-1.033,1.422a2.211,2.211,0,0,1-3.578-2.6l1.033-1.422a2.211,2.211,0,0,1,3.578,2.6Z" fill="none" stroke="#fff" stroke-miterlimit="10" stroke-width="1"/>
    </g>
  </g>
</svg>
