<?xml version="1.0" encoding="utf-8"?>
<!-- Generator: Adobe Illustrator 28.0.0, SVG Export Plug-In . SVG Version: 6.00 Build 0)  -->
<svg version="1.1" id="Layer_1" xmlns="http://www.w3.org/2000/svg" xmlns:xlink="http://www.w3.org/1999/xlink" x="0px" y="0px"
	 viewBox="0 0 10 14.4" style="enable-background:new 0 0 10 14.4;" xml:space="preserve">
<style type="text/css">
	.st0{fill:#061E3B;}
</style>
<path id="icon_login_white" class="st0" d="M8.9,5.5V3.9C8.9,1.7,7.2,0,5,0S1.1,1.7,1.1,3.9v1.6C0.4,5.8,0,6.5,0,7.2v5.5
	c0,1,0.8,1.8,1.8,1.8h6.5c1,0,1.8-0.8,1.8-1.8V7.2C10,6.5,9.6,5.8,8.9,5.5z M5,1.7c1.2,0,2.2,1,2.2,2.2v1.5H2.8V3.9
	C2.8,2.7,3.8,1.7,5,1.7z M5.6,10v2c0,0.3-0.2,0.6-0.5,0.6c-0.3,0-0.6-0.2-0.6-0.5c0,0,0,0,0,0v-2C3.9,9.7,3.7,9,4,8.4
	C4.3,7.9,5,7.7,5.6,8C6.1,8.3,6.3,9,6,9.6C5.9,9.7,5.7,9.9,5.6,10z"/>
</svg>
