<svg xmlns="http://www.w3.org/2000/svg" width="80.846" height="80.846" viewBox="0 0 80.846 80.846">
  <g id="icon_platform" transform="translate(-989.788 -3124)">
    <circle id="circle" cx="40.423" cy="40.423" r="40.423" transform="translate(989.788 3124)" fill="#13294a" opacity="0.5"/>
    <g id="icon_platform-2" data-name="icon_platform" transform="translate(1011.288 3145.5)">
      <circle id="Ellipse_41" data-name="Ellipse 41" cx="4.583" cy="4.583" r="4.583" transform="translate(14.199 14.199)" fill="none" stroke="#fff" stroke-miterlimit="10" stroke-width="1"/>
      <path id="Path_154" data-name="Path 154" d="M29.275,20.454V17.11a.21.21,0,0,0-.209-.209H27.22a.2.2,0,0,1-.2-.156,8.427,8.427,0,0,0-.975-2.348.2.2,0,0,1,.029-.249l1.307-1.307a.209.209,0,0,0,0-.3L25.02,10.181a.209.209,0,0,0-.3,0l-1.307,1.307a.2.2,0,0,1-.25.029,8.415,8.415,0,0,0-2.348-.975.2.2,0,0,1-.156-.2V8.5a.209.209,0,0,0-.209-.21H17.111a.21.21,0,0,0-.21.21v1.84a.2.2,0,0,1-.157.2,8.626,8.626,0,0,0-2.347.98.2.2,0,0,1-.25-.03l-1.306-1.306a.209.209,0,0,0-.3,0l-2.364,2.364a.209.209,0,0,0,0,.3l1.307,1.307a.2.2,0,0,1,.029.249,8.427,8.427,0,0,0-.975,2.348.2.2,0,0,1-.2.156H8.5a.21.21,0,0,0-.21.209v3.344a.21.21,0,0,0,.21.209h1.846a.2.2,0,0,1,.2.156,8.415,8.415,0,0,0,.975,2.348.2.2,0,0,1-.029.25l-1.307,1.307a.209.209,0,0,0,0,.3l2.364,2.364a.209.209,0,0,0,.3,0l1.306-1.306a.2.2,0,0,1,.25-.031,8.214,8.214,0,0,0,2.347.98.2.2,0,0,1,.157.2v1.842a.21.21,0,0,0,.21.209h3.343a.209.209,0,0,0,.209-.209V27.219a.2.2,0,0,1,.156-.2,8.415,8.415,0,0,0,2.348-.975.2.2,0,0,1,.25.029l1.307,1.307a.209.209,0,0,0,.3,0l2.364-2.364a.209.209,0,0,0,0-.3l-1.307-1.307a.2.2,0,0,1-.029-.25,8.415,8.415,0,0,0,.975-2.348.2.2,0,0,1,.2-.156h1.846A.21.21,0,0,0,29.275,20.454Z" fill="none" stroke="#fff" stroke-miterlimit="10" stroke-width="1"/>
      <path id="Path_155" data-name="Path 155" d="M24.266,32.289a14.626,14.626,0,0,1-10.968,0" fill="none" stroke="#fff" stroke-miterlimit="10" stroke-width="1"/>
      <path id="Path_156" data-name="Path 156" d="M32.289,13.3a14.626,14.626,0,0,1,0,10.968" fill="none" stroke="#fff" stroke-miterlimit="10" stroke-width="1"/>
      <path id="Path_157" data-name="Path 157" d="M13.3,5.276a14.626,14.626,0,0,1,10.968,0" fill="none" stroke="#fff" stroke-miterlimit="10" stroke-width="1"/>
      <path id="Path_158" data-name="Path 158" d="M5.276,24.266a14.626,14.626,0,0,1,0-10.968" fill="none" stroke="#fff" stroke-miterlimit="10" stroke-width="1"/>
      <path id="Path_159" data-name="Path 159" d="M35.628,25.9A18.348,18.348,0,0,1,25.9,35.628" fill="none" stroke="#fff" stroke-miterlimit="10" stroke-width="1"/>
      <path id="Path_160" data-name="Path 160" d="M25.9,1.937a18.348,18.348,0,0,1,9.729,9.729" fill="none" stroke="#fff" stroke-miterlimit="10" stroke-width="1"/>
      <path id="Path_161" data-name="Path 161" d="M1.937,11.666a18.348,18.348,0,0,1,9.729-9.729" fill="none" stroke="#fff" stroke-miterlimit="10" stroke-width="1"/>
      <path id="Path_162" data-name="Path 162" d="M11.666,35.628A18.348,18.348,0,0,1,1.937,25.9" fill="none" stroke="#fff" stroke-miterlimit="10" stroke-width="1"/>
      <path id="Path_163" data-name="Path 163" d="M25.9,1.937a18.348,18.348,0,0,1,9.729,9.729" fill="none" stroke="#fff" stroke-miterlimit="10" stroke-width="1"/>
      <path id="Path_164" data-name="Path 164" d="M20.535,36.981q-.875.084-1.752.084t-1.753-.084" fill="none" stroke="#fff" stroke-miterlimit="10" stroke-width="1"/>
      <path id="Path_165" data-name="Path 165" d="M17.03.584Q17.9.5,18.783.5t1.752.084" fill="none" stroke="#fff" stroke-miterlimit="10" stroke-width="1"/>
      <path id="Path_166" data-name="Path 166" d="M.584,20.535Q.5,19.66.5,18.783T.584,17.03" fill="none" stroke="#fff" stroke-miterlimit="10" stroke-width="1"/>
      <path id="Path_167" data-name="Path 167" d="M36.981,17.03q.084.875.084,1.752t-.084,1.753" fill="none" stroke="#fff" stroke-miterlimit="10" stroke-width="1"/>
      <path id="Path_168" data-name="Path 168" d="M30.028,28.053q-.445.54-.941,1.035t-1.035.941" fill="none" stroke="#fff" stroke-miterlimit="10" stroke-width="1"/>
      <path id="Path_169" data-name="Path 169" d="M28.052,7.536q.54.446,1.035.941t.941,1.035" fill="none" stroke="#fff" stroke-miterlimit="10" stroke-width="1"/>
      <path id="Path_170" data-name="Path 170" d="M7.536,9.512q.446-.54.941-1.035t1.035-.941" fill="none" stroke="#fff" stroke-miterlimit="10" stroke-width="1"/>
      <path id="Path_171" data-name="Path 171" d="M9.512,30.028q-.54-.445-1.035-.941t-.941-1.035" fill="none" stroke="#fff" stroke-miterlimit="10" stroke-width="1"/>
    </g>
  </g>
</svg>
