<svg xmlns="http://www.w3.org/2000/svg" width="25.331" height="18" viewBox="0 0 25.331 18">
  <g id="quote_end_blue" transform="translate(0)" opacity="0.5">
    <path id="Path_278" data-name="Path 278" d="M5.779,0a5.6,5.6,0,0,1,5.786,5.4,5.1,5.1,0,0,1-.853,2.82C9.3,11.121,4.926,16.032,2.572,18c1.406-2.325,3.1-4.934,4.263-7.295a6.263,6.263,0,0,1-1.057.095A5.6,5.6,0,0,1,0,5.4,5.6,5.6,0,0,1,5.779,0" transform="translate(0)" fill="#4273c9" fill-rule="evenodd"/>
    <path id="Path_279" data-name="Path 279" d="M701.214,0A5.6,5.6,0,0,1,707,5.4a5.1,5.1,0,0,1-.853,2.82c-1.414,2.9-5.786,7.812-8.14,9.78,1.406-2.325,3.1-4.934,4.263-7.295a6.263,6.263,0,0,1-1.057.095,5.6,5.6,0,0,1-5.779-5.4A5.6,5.6,0,0,1,701.214,0" transform="translate(-681.669)" fill="#4273c9" fill-rule="evenodd"/>
  </g>
</svg>
