<svg xmlns="http://www.w3.org/2000/svg" width="21.74" height="15.449" viewBox="0 0 21.74 15.449">
  <g id="quote_start_white" opacity="0.5">
    <path id="Path_278" data-name="Path 278" d="M4.966,0A4.808,4.808,0,0,0,0,4.635a4.378,4.378,0,0,0,.732,2.42c1.213,2.489,4.966,6.7,6.986,8.393-1.207-2-2.658-4.234-3.659-6.261a5.375,5.375,0,0,0,.907.081,4.806,4.806,0,0,0,4.96-4.635A4.806,4.806,0,0,0,4.966,0" transform="translate(11.814)" fill="#fff" fill-rule="evenodd"/>
    <path id="Path_279" data-name="Path 279" d="M700.4,0a4.808,4.808,0,0,0-4.966,4.635,4.379,4.379,0,0,0,.732,2.42c1.213,2.489,4.966,6.7,6.986,8.393-1.207-2-2.658-4.234-3.659-6.261a5.374,5.374,0,0,0,.907.081,4.806,4.806,0,0,0,4.96-4.635A4.806,4.806,0,0,0,700.4,0" transform="translate(-695.435)" fill="#fff" fill-rule="evenodd"/>
  </g>
</svg>
