<svg xmlns="http://www.w3.org/2000/svg" width="21.74" height="15.448" viewBox="0 0 21.74 15.448">
  <g id="quote_end_white" opacity="0.5">
    <path id="Path_278" data-name="Path 278" d="M4.96,0A4.808,4.808,0,0,1,9.926,4.634a4.378,4.378,0,0,1-.732,2.42c-1.213,2.489-4.966,6.7-6.986,8.393,1.207-2,2.658-4.234,3.659-6.261a5.375,5.375,0,0,1-.907.081A4.806,4.806,0,0,1,0,4.634,4.806,4.806,0,0,1,4.96,0" transform="translate(0)" fill="#fff" fill-rule="evenodd"/>
    <path id="Path_279" data-name="Path 279" d="M700.395,0a4.808,4.808,0,0,1,4.966,4.634,4.379,4.379,0,0,1-.732,2.42c-1.213,2.489-4.966,6.7-6.986,8.393,1.207-2,2.658-4.234,3.659-6.261a5.376,5.376,0,0,1-.907.081,4.806,4.806,0,0,1-4.96-4.635A4.806,4.806,0,0,1,700.395,0" transform="translate(-683.621)" fill="#fff" fill-rule="evenodd"/>
  </g>
</svg>
