<svg xmlns="http://www.w3.org/2000/svg" width="25.331" height="18" viewBox="0 0 25.331 18">
  <g id="quote_start_blue" opacity="0.5">
    <path id="Path_278" data-name="Path 278" d="M5.786,0A5.6,5.6,0,0,0,0,5.4,5.1,5.1,0,0,0,.853,8.22c1.414,2.9,5.786,7.812,8.14,9.78-1.406-2.325-3.1-4.934-4.263-7.295a6.263,6.263,0,0,0,1.057.095,5.6,5.6,0,0,0,5.779-5.4A5.6,5.6,0,0,0,5.786,0" transform="translate(13.766)" fill="#4273c9" fill-rule="evenodd"/>
    <path id="Path_279" data-name="Path 279" d="M701.221,0a5.6,5.6,0,0,0-5.786,5.4,5.1,5.1,0,0,0,.853,2.82c1.414,2.9,5.786,7.812,8.14,9.78-1.406-2.325-3.1-4.934-4.263-7.295a6.263,6.263,0,0,0,1.057.095A5.6,5.6,0,0,0,707,5.4,5.6,5.6,0,0,0,701.221,0" transform="translate(-695.435)" fill="#4273c9" fill-rule="evenodd"/>
  </g>
</svg>
