<?xml version="1.0" encoding="utf-8"?>
<!-- Generator: Adobe Illustrator 28.1.0, SVG Export Plug-In . SVG Version: 6.00 Build 0)  -->
<svg version="1.1" id="logo_walleye_white" xmlns="http://www.w3.org/2000/svg" xmlns:xlink="http://www.w3.org/1999/xlink" x="0px"
	 y="0px" viewBox="0 0 16 16" style="enable-background:new 0 0 16 16;" xml:space="preserve">
<style type="text/css">
	.st0{fill:#21498F;}
	.st1{fill:#FFFFFF;}
</style>
<rect class="st0" width="16" height="16"/>
<path id="logomark" class="st1" d="M10.5,10.1c-0.5-0.2-1.1,0-1.6,0.2c-0.5,0.2-1.2,0.4-1.7,0.4c-0.6,0.1-1.1-0.3-1.2-0.9
	C5.8,9.2,6.1,8.6,6.6,8.3C6.2,8.4,5.9,8.8,5.7,9.2c-0.2,0.7,0.1,1.4,0.7,1.7c0.6,0.3,1.3,0.1,1.9-0.1c0.4-0.1,0.8-0.2,1.2-0.3
	c0.3-0.1,0.6-0.1,0.8-0.1c0.2,0,0.2,0.2,0.2,0.4c0,0.1,0,0.1-0.1,0.1c-0.3,0.4-0.8,0.6-1.1,1c-0.1,0.1-0.1,0.2-0.1,0.3
	c0-0.1,0.1-0.2,0.2-0.2c0.4-0.4,0.9-0.5,1.3-0.9c0.2-0.2,0.3-0.6,0-0.9C10.7,10.1,10.6,10.1,10.5,10.1 M12.1,7.9
	c-0.8-0.2-1.7-0.5-2.6-0.7C8.4,7.1,7.2,7.1,6.2,7.6C5.3,8.1,4.6,9,4.6,10c0,1.3,1,2.4,2.1,3.1c0.3,0.2,0.5,0.4,0.7,0.6
	C7.7,14,8,14.3,8.3,14.6c0.3,0.3,0.6,0.6,0.9,0.6c0.7,0,0.4-0.9,0.2-1.5c-0.1-0.4-0.3-0.8-0.3-1.3c-0.1,0.2-0.1,0.4,0,0.7
	c0,0.2,0.1,0.4,0.1,0.6c0,0.3,0.3,1,0.1,1.1C9.3,15,9.1,15,9,14.9c-0.1-0.1-0.3-0.3-0.4-0.5c-0.3-0.4-0.5-0.7-0.9-1
	c-0.2-0.2-0.5-0.5-0.7-0.7c-0.7-0.6-1.4-1.2-1.7-2.1C5,9.4,5.9,8.2,7,7.9c0.8-0.3,1.7-0.3,2.5-0.2C10.3,7.7,11.2,8,12,8.1
	c0.8,0.2,1.8,0.3,2.6-0.3C13.8,8.3,12.9,8.1,12.1,7.9 M4,7.6c0,0.7,0.2,1.5,0.4,2.2C4.3,9.1,4.3,8.4,4.3,7.6c0.2-2.8,2.2-4.2,5-4
	c2.2,0.1,5.1,1.8,5.7,4c-0.1-1.1-0.8-2.1-1.6-2.9c-0.6-0.7-1.4-1.2-2.3-1.5c-0.1-0.6-0.3-1.2-0.5-1.7c-0.1-0.3-0.3-0.6-0.4-0.8
	C9.3,0.9,8.5,1.3,7.7,1.8C7,2.2,6.4,2.8,5.9,3.5c1-1.2,2.4-1.9,3.9-2.2c0,0,0.1,0,0.1,0c0.3,0.6,0.5,1.2,0.6,1.8
	C9.7,2.9,8.9,2.9,8.1,3C6.7,3.1,5.6,3.7,4.9,4.7c-0.5-0.1-1-0.1-1.5-0.2l-0.2,0C3.1,4.7,3.1,4.9,3.1,5.2c0,0.5,0,1,0.1,1.5
	C3.3,7.4,3.6,8,4,8.6C3.9,8.3,3.7,8,3.6,7.6C3.4,6.8,3.3,5.9,3.5,5c0.3,0.1,0.7,0.1,1,0.2C4.2,5.9,4,6.8,4,7.6 M9.7,5.2
	C8.8,4.5,7.7,4.3,6.7,4.7L6.6,4.7l0,0.2c0.2,0.7,0.8,1.3,1.5,1.4C7.6,6,7.2,5.5,7,5C7.9,4.8,8.8,4.9,9.7,5.2"/>
</svg>
